Coordinates
version=1
nRows=17
nColumns=34
inDegrees=yes

Units are S.I. units (second, meters, Newtons, ...)
If the header above contains a line with 'inDegrees', this indicates whether rotational values are in degrees (yes) or radians (no).

endheader
time	pelvis_tilt	pelvis_list	pelvis_rotation	pelvis_tx	pelvis_ty	pelvis_tz	hip_flexion_r	hip_adduction_r	hip_rotation_r	knee_angle_r	ankle_angle_r	subtalar_angle_r	mtp_angle_r	hip_flexion_l	hip_adduction_l	hip_rotation_l	knee_angle_l	ankle_angle_l	subtalar_angle_l	mtp_angle_l	lumbar_extension	lumbar_bending	lumbar_rotation	arm_flex_r	arm_add_r	arm_rot_r	elbow_flex_r	pro_sup_r	arm_flex_l	arm_add_l	arm_rot_l	elbow_flex_l	pro_sup_l
      3.48333330	    -41.86666021	      1.60025606	      3.89945822	      0.70547366	      0.53651942	     -0.01241181	    119.99999986	     -8.42026177	      1.94273658	    110.66187599	     32.07524299	    -22.98241194	      0.00000000	    119.99999986	    -14.99118673	     -5.54458159	    106.75826378	     23.43284181	     -9.14576559	      0.00000000	    -29.80437441	     -1.78152129	      1.37818497	    149.19552913	      7.62869876	     34.19957455	     49.64021207	     59.67393113	    148.74475806	     13.92350306	     51.95474213	     22.16468244	     40.18302268
      3.50000000	    -45.17822692	      1.05204644	      4.15719701	      0.70008819	      0.55291007	     -0.00974000	    119.99999986	     -7.97200824	      1.76680500	    106.86842887	     30.28878026	    -24.68056181	      0.00000000	    119.99999986	    -14.15994926	     -6.14090748	    102.96235179	     23.46431302	     -9.59670382	      0.00000000	    -24.41806532	     -2.18910204	      1.57570012	    147.24562524	      6.73420130	     33.50829596	     56.72875352	     59.90073209	    146.82177562	     15.39261148	     49.44352502	     23.17868836	     40.52469993
      3.51666670	    -47.66996385	      0.26244923	      4.09074375	      0.69085901	      0.57115158	     -0.00755069	    119.70408098	     -7.27788346	      1.24137560	    102.85430377	     28.16873944	    -26.56975903	      0.00000000	    119.99999986	    -13.39617222	     -6.07391874	     99.12110064	     22.35017550	    -10.55564708	      0.00000000	    -19.99416748	     -2.45026858	      3.18888009	    147.12834735	      3.52246715	     36.04453579	     62.06494267	     60.24014732	    145.62404981	     16.82274282	     47.84320771	     22.61937283	     41.29915552
      3.53333330	    -49.49205618	     -0.50590635	      3.88711943	      0.68149899	      0.59324156	     -0.00830463	    118.76087788	     -6.34827072	      0.98290330	     98.25548092	     26.02612776	    -28.11409666	      0.00000000	    119.52768892	    -12.45878631	     -5.72618174	     95.03168507	     21.29160642	    -11.54913890	      0.00000000	    -16.60086675	     -2.19896219	      5.45475241	    147.47656044	     -0.10886757	     38.85339080	     62.58886400	     60.14227975	    146.01993521	     18.23612417	     45.95467178	     19.44363943	     42.11886763
      3.55000000	    -49.05251143	     -0.19082798	      4.09241175	      0.67615717	      0.61666882	     -0.00955379	    116.04637644	     -5.55500358	      1.90430905	     93.94810197	     23.83022124	    -29.25589317	      0.00000000	    116.56669146	    -11.49998328	     -6.37918629	     90.99673860	     19.28889990	    -13.80706640	      0.00000000	    -16.38060784	     -2.76452815	      6.82989907	    148.97815022	     -3.93070121	     42.13990733	     64.75953583	     60.27741091	    147.73572638	     17.44941998	     45.78245475	     18.38036194	     42.64884628
      3.56666670	    -48.79513421	      0.01454970	      4.16606799	      0.67993414	      0.64040162	     -0.00892515	    113.08364959	     -4.71086977	      2.72167659	     89.67237877	     22.16279880	    -30.37546057	      0.00000000	    113.66705817	    -10.57532473	     -6.61993208	     87.08648698	     18.03939641	    -15.23889958	      0.00000000	    -15.64201450	     -2.81300803	      9.25108633	    151.03353519	     -8.35501614	     48.79456764	     69.15539139	     60.31300537	    148.76568632	     13.47136516	     47.96406171	     20.81018200	     44.08596436
      3.58333330	    -48.36039286	      0.37330628	      4.28437968	      0.68966269	      0.66402349	     -0.01237354	    109.62458502	     -4.17315260	      3.58969525	     85.49840672	     20.48987337	    -31.33966988	      0.00000000	    110.19539565	     -9.58872316	     -7.04695962	     83.21493232	     16.64106687	    -17.01250698	      0.00000000	    -14.51351515	     -2.60471351	     10.44717045	    151.87747619	    -12.34714965	     54.45931797	     74.72296014	     60.62216860	    148.01483753	      7.31056269	     50.66549802	     25.75361653	     45.54279281
      3.60000000	    -47.75425347	      0.66360926	      4.39279093	      0.69975423	      0.68874267	     -0.01289981	    105.74472977	     -3.86943046	      4.25529761	     81.50417712	     18.87038139	    -32.36968427	      0.00000000	    106.33341360	     -8.52738374	     -7.20222825	     79.26864491	     15.43710564	    -18.55758221	      0.00000000	    -12.78313488	     -2.16330852	     12.15987703	    152.13893396	    -16.68672181	     60.43272700	     80.17565672	     61.31043375	    144.06458338	     -1.65970000	     51.41924196	     36.63320584	     47.41785867
      3.61666670	    -46.72102061	      0.94132024	      4.06783035	      0.71732415	      0.71530592	     -0.01799024	    100.88334661	     -3.63605911	      4.45767440	     77.28896479	     17.55137787	    -33.27817967	      0.00000000	    101.56050390	     -7.61365381	     -7.17874601	     75.18015455	     14.08696280	    -20.20568127	      0.00000000	    -10.49982047	     -1.04839615	     11.90607881	    149.34872479	    -20.94196198	     64.54315653	     87.02028955	     62.93141808	    138.74567433	    -11.52948359	     49.45590819	     46.57659121	     49.96169532
      3.63333330	    -45.69688777	      1.51657413	      3.43633849	      0.72319221	      0.73376157	     -0.01856184	     96.63367460	     -3.30011982	      4.73255253	     73.46741785	     16.01159893	    -34.21204136	      0.00000000	     97.05609875	     -6.89262785	     -7.06710222	     71.49907585	     13.21588217	    -21.94406033	      0.00000000	     -8.47638990	     -0.21949578	     11.51491604	    148.59528029	    -22.06285896	     67.36350444	     88.44659374	     64.58298971	    135.50967047	    -22.10677334	     48.31748889	     52.48031739	     53.17275229
      3.65000000	    -44.74936902	      2.07219348	      3.01332151	      0.73276747	      0.75875056	     -0.01736094	     92.39797117	     -3.19324073	      5.05795342	     69.44606262	     14.34224970	    -35.00000000	      0.00000000	     92.49659244	     -5.90836031	     -6.84056750	     67.17860153	     10.66502663	    -24.91843156	      0.00000000	     -6.79343320	      0.16692125	      9.81051162	    147.62046820	    -23.25533564	     68.14045572	     87.37298110	     65.56484149	    135.63013341	    -29.90382379	     48.58681261	     52.83685954	     55.00497831
      3.66666670	    -43.44314670	      2.28238676	      2.66269810	      0.74298924	      0.78523553	     -0.01785774	     87.38807999	     -3.16238153	      4.91768714	     64.56930995	     13.50154231	    -35.00000000	      0.00000000	     87.69087788	     -5.26552553	     -6.75853274	     62.73731366	      9.27721984	    -25.30322182	      0.00000000	     -4.70370521	      0.21097466	      7.90506607	    145.30358739	    -25.20373588	     69.38588815	     83.48365754	     65.87748359	    136.13371118	    -34.07319522	     48.20517660	     49.70768516	     55.45193451
      3.68333330	    -41.84383644	      2.88146696	      2.17410044	      0.74854681	      0.81569396	     -0.01698024	     82.28056722	     -3.26056641	      5.08743592	     59.22132192	     11.03997084	    -35.00000000	      0.00000000	     82.14222884	     -4.43470199	     -6.56658107	     57.08021477	      6.10564208	    -26.58646410	      0.00000000	     -3.49013388	     -0.23170559	      6.18524486	    144.34130668	    -26.49551351	     70.12142394	     75.98694157	     66.29599823	    138.01381202	    -38.23691450	     47.74633016	     46.58931098	     56.20168696
      3.70000000	    -40.26097734	      2.87971675	      1.82504728	      0.75694536	      0.84295688	     -0.01498705	     76.58645151	     -3.35754856	      4.45202288	     52.70361067	      8.16054724	    -35.00000000	      0.00000000	     76.78567429	     -3.86253937	     -6.05799341	     50.90224157	      1.31458935	    -28.75100882	      0.00000000	     -2.50840316	      0.28370578	      4.81667552	    144.90728606	    -27.83377486	     71.14179706	     68.09630806	     67.14374068	    140.90305016	    -43.26999744	     48.86614461	     43.11204458	     57.74213070
      3.71666670	    -39.16458655	      2.75700120	      1.71098594	      0.76786367	      0.86918232	     -0.01423630	     71.17288324	     -3.67290594	      3.36903608	     45.48430828	      5.00191477	    -34.05153949	      0.00000000	     71.70789633	     -3.42262394	     -5.78541546	     44.22619608	     -2.33235651	    -28.15235826	      0.00000000	     -1.22507212	      1.62469658	      2.94236298	    148.10057958	    -24.74711636	     78.51262636	     56.39941812	     69.44908047	    147.59951441	    -51.88891648	     61.26435016	     41.53209576	     64.70272555
      3.73333330	    -37.29061347	      2.79064914	      1.65809387	      0.78064480	      0.90242837	     -0.01399790	     64.29542613	     -4.27156533	      1.75211191	     37.04718093	      1.63233773	    -31.73441937	      0.00000000	     65.07173371	     -2.86607022	     -5.66987984	     36.17332356	     -6.47496694	    -26.64343625	      0.00000000	     -0.08408973	      1.07602720	      2.96467086	    148.43141889	    -27.74353775	     81.73984126	     49.26556928	     69.23684153	    150.05925283	    -53.61177553	     64.93216773	     34.86507777	     66.14795164
      3.75000000	    -34.96773603	      2.98668621	      1.28433265	      0.79181380	      0.93557921	     -0.01390796	     56.74643453	     -4.72272800	     -0.42342460	     27.85217920	     -1.08281233	    -27.22289855	      0.00000000	     57.73396197	     -2.57813294	     -6.63683086	     27.85788900	    -10.73150741	    -23.90608449	      0.00000000	      0.37477263	      0.64881825	      3.91181131	    149.31542763	    -32.29688079	     84.98136909	     44.87688832	     68.85052473	    151.68437992	    -56.49555466	     68.13802667	     31.32324404	     67.15979468
